<svg width="48" height="48" viewBox="0 0 48 48" fill="none" xmlns="http://www.w3.org/2000/svg">
<path d="M0 8C0 3.58172 3.58172 0 8 0H40C44.4183 0 48 3.58172 48 8V40C48 44.4183 44.4183 48 40 48H8C3.58172 48 0 44.4183 0 40V8Z" fill="#FDFBF7"/>
<path d="M21.8896 8.73323C23.1466 7.75558 24.9071 7.75561 26.1641 8.73323L38.5859 18.3934C39.8579 19.3834 39.1581 21.4242 37.5459 21.4246H35.5762V32.3641H36.2959C37.2309 32.3643 37.989 33.1224 37.9893 34.0574V35.0506H38.3604C39.2955 35.0508 40.0544 35.81 40.0547 36.7449V38.5399C40.0547 39.4751 39.2955 40.234 38.3604 40.2342H9.69336C8.75798 40.2342 8 39.4751 8 38.5399V36.7449C8.00025 35.8098 8.75818 35.0506 9.69336 35.0506H10.0645V34.0574C10.0647 33.1224 10.8228 32.3642 11.7578 32.3641H12.4785V21.4246H10.5088C8.89614 21.4246 8.19593 19.3834 9.46875 18.3934L21.8896 8.73323ZM11.7578 33.9637C11.7065 33.9638 11.6643 34.006 11.6641 34.0574V35.8514C11.6639 36.2929 11.3058 36.651 10.8643 36.6512H9.69336C9.64183 36.6512 9.59986 36.6935 9.59961 36.7449V38.5399C9.59961 38.5915 9.64173 38.6336 9.69336 38.6336H38.3604C38.4119 38.6334 38.4541 38.5915 38.4541 38.5399V36.7449C38.4539 36.6936 38.4117 36.6514 38.3604 36.6512H37.1895C36.7478 36.6511 36.3899 36.293 36.3896 35.8514V34.0574C36.3894 34.0061 36.3473 33.9639 36.2959 33.9637H11.7578ZM18.1094 32.3641H21.2061V21.4246H18.1094V32.3641ZM26.8369 32.3641H29.9453V21.4246H26.8369V32.3641ZM14.0781 32.3641H16.5088V21.4246H14.0781V32.3641ZM22.8057 32.3641H25.2363V21.4246H22.8057V32.3641ZM31.5449 32.3641H33.9756V21.4246H31.5449V32.3641ZM25.1816 9.99592C24.5024 9.46776 23.5512 9.46774 22.8721 9.99592L10.4512 19.6571C10.4222 19.6797 10.4178 19.6951 10.416 19.702C10.4128 19.7145 10.4112 19.7362 10.4199 19.7615C10.4287 19.7866 10.443 19.8027 10.4531 19.8104C10.459 19.8148 10.4727 19.824 10.5088 19.824H37.5459C37.5824 19.824 37.596 19.8146 37.6016 19.8104C37.6117 19.8026 37.6251 19.7864 37.6338 19.7615C37.6424 19.7364 37.6418 19.7145 37.6387 19.702C37.6369 19.6952 37.632 19.6794 37.6035 19.6571L25.1816 9.99592Z" fill="#9D5E00"/>
</svg>
